<svg xmlns="http://www.w3.org/2000/svg" viewBox="0 0 64 64" role="img" aria-label="Earth weather icon">
  <defs>
    <radialGradient id="g" cx="35%" cy="25%" r="75%">
      <stop offset="0" stop-color="#93c5fd"/>
      <stop offset="0.58" stop-color="#2563eb"/>
      <stop offset="1" stop-color="#0f172a"/>
    </radialGradient>
    <linearGradient id="sun" x1="0" x2="1" y1="0" y2="1">
      <stop offset="0" stop-color="#fde68a"/>
      <stop offset="1" stop-color="#f59e0b"/>
    </linearGradient>
  </defs>
  <circle cx="32" cy="32" r="28" fill="url(#g)"/>
  <path d="M17 23c5-8 15-12 25-8-2 4-8 5-11 9-2 3 0 6-4 8-4 1-8-2-10-9Z" fill="#22c55e"/>
  <path d="M38 36c6-1 12 2 15 7-5 8-15 12-24 8 4-4 4-10 9-15Z" fill="#16a34a"/>
  <path d="M16 43c4-2 8 0 10 4 1 3-3 5-7 3-2-1-4-4-3-7Z" fill="#86efac"/>
  <circle cx="48" cy="17" r="8" fill="url(#sun)"/>
  <path d="M18 38h24a8 8 0 0 0 0-16 12 12 0 0 0-22-4 10 10 0 0 0-2 20Z" fill="#fff" opacity=".94"/>
  <path d="M22 43h24" stroke="#bfdbfe" stroke-width="4" stroke-linecap="round"/>
</svg>
